<svg xmlns="http://www.w3.org/2000/svg" viewBox="0 0 64 64" role="img" aria-labelledby="title desc">
  <title id="title">RE-Biz</title>
  <desc id="desc">RE-Biz business management mark</desc>
  <rect x="3" y="3" width="58" height="58" rx="14" fill="#1e4c45"/>
  <path d="M17 47V17h12.3c8 0 12.4 4 12.4 10.5 0 5-2.4 8.4-6.9 9.8L43 47h-7.8l-7.2-8.7H24V47h-7Zm7-24.4v10.9h5.6c3.4 0 5.2-2 5.2-5.5 0-3.4-1.8-5.4-5.2-5.4H24Z" fill="#fffefa"/>
  <rect x="43" y="18" width="6" height="4" rx="2" fill="#d3ad5c"/>
  <rect x="43" y="26" width="10" height="4" rx="2" fill="#d3ad5c"/>
  <rect x="43" y="34" width="14" height="4" rx="2" fill="#d3ad5c"/>
</svg>
